<?xml version="1.0" encoding="UTF-8"?>
<svg width="16px" height="16px" viewBox="0 0 16 16" version="1.1" xmlns="http://www.w3.org/2000/svg" xmlns:xlink="http://www.w3.org/1999/xlink">
    <title>icon/更多-1</title>
    <g id="页面-1" stroke="none" stroke-width="1" fill="none" fill-rule="evenodd">
        <g id="态势跟踪-事件详情" transform="translate(-1672, -116)" fill-rule="nonzero">
            <g id="模块标题" transform="translate(504, 104)">
                <g id="编组-8" transform="translate(1136, 10)">
                    <g id="icon/更多-1" transform="translate(32, 2)">
                        <rect id="矩形" fill="#000000" opacity="0" x="0" y="0" width="16" height="16"></rect>
                        <path d="M8.33125,7.6921875 L4.3421875,2.5953125 C4.2953125,2.534375 4.221875,2.5 4.1453125,2.5 L2.9375,2.5 C2.8328125,2.5 2.775,2.6203125 2.8390625,2.7015625 L6.9859375,8 L2.8390625,13.2984375 C2.775,13.3796875 2.8328125,13.5 2.9375,13.5 L4.1453125,13.5 C4.221875,13.5 4.2953125,13.4640625 4.3421875,13.4046875 L8.33125,8.309375 C8.4734375,8.1265625 8.4734375,7.8734375 8.33125,7.6921875 Z M13.08125,7.6921875 L9.0921875,2.5953125 C9.0453125,2.534375 8.971875,2.5 8.8953125,2.5 L7.6875,2.5 C7.5828125,2.5 7.525,2.6203125 7.5890625,2.7015625 L11.7359375,8 L7.5890625,13.2984375 C7.525,13.3796875 7.5828125,13.5 7.6875,13.5 L8.8953125,13.5 C8.971875,13.5 9.0453125,13.4640625 9.0921875,13.4046875 L13.08125,8.309375 C13.2234375,8.1265625 13.2234375,7.8734375 13.08125,7.6921875 Z" id="形状" fill="#C2DAFF"></path>
                    </g>
                </g>
            </g>
        </g>
    </g>
</svg>